<mxfile host="65bd71144e">
    <diagram id="I_gE1JcHwaSbrI1z9Dea" name="Page-1">
        <mxGraphModel dx="576" dy="413" grid="1" gridSize="10" guides="1" tooltips="1" connect="1" arrows="1" fold="1" page="1" pageScale="1" pageWidth="827" pageHeight="1169" math="0" shadow="0">
            <root>
                <mxCell id="0"/>
                <mxCell id="1" parent="0"/>
                <mxCell id="3" style="edgeStyle=none;html=1;fontColor=#000000;entryX=0.5;entryY=0;entryDx=0;entryDy=0;" edge="1" parent="1" source="2" target="4">
                    <mxGeometry relative="1" as="geometry">
                        <mxPoint x="255" y="120" as="targetPoint"/>
                    </mxGeometry>
                </mxCell>
                <mxCell id="2" value="&lt;font color=&quot;#000000&quot;&gt;INICIO&lt;/font&gt;" style="ellipse;whiteSpace=wrap;html=1;fillColor=#6a00ff;fontColor=#ffffff;strokeColor=#3700CC;" vertex="1" parent="1">
                    <mxGeometry x="435" y="20" width="90" height="60" as="geometry"/>
                </mxCell>
                <mxCell id="5" style="edgeStyle=none;html=1;fontColor=#000000;entryX=0.5;entryY=0;entryDx=0;entryDy=0;" edge="1" parent="1" source="4" target="6">
                    <mxGeometry relative="1" as="geometry">
                        <mxPoint x="255" y="220" as="targetPoint"/>
                    </mxGeometry>
                </mxCell>
                <mxCell id="4" value="&lt;font color=&quot;#000000&quot;&gt;X , Y&amp;nbsp;&lt;/font&gt;" style="shape=parallelogram;perimeter=parallelogramPerimeter;whiteSpace=wrap;html=1;fixedSize=1;fontColor=#ffffff;fillColor=#008a00;strokeColor=#005700;" vertex="1" parent="1">
                    <mxGeometry x="420" y="120" width="120" height="60" as="geometry"/>
                </mxCell>
                <mxCell id="21" style="edgeStyle=none;html=1;fontColor=#000000;entryX=0.5;entryY=0;entryDx=0;entryDy=0;" edge="1" parent="1" source="6" target="10">
                    <mxGeometry relative="1" as="geometry">
                        <mxPoint x="690" y="260" as="targetPoint"/>
                        <Array as="points">
                            <mxPoint x="650" y="260"/>
                        </Array>
                    </mxGeometry>
                </mxCell>
                <mxCell id="23" style="edgeStyle=none;html=1;exitX=0;exitY=0.5;exitDx=0;exitDy=0;fontColor=#000000;entryX=0.5;entryY=0;entryDx=0;entryDy=0;" edge="1" parent="1" source="6" target="24">
                    <mxGeometry relative="1" as="geometry">
                        <mxPoint x="310" y="320" as="targetPoint"/>
                        <Array as="points">
                            <mxPoint x="340" y="260"/>
                        </Array>
                    </mxGeometry>
                </mxCell>
                <mxCell id="6" value="&lt;font color=&quot;#000000&quot;&gt;X==0&lt;/font&gt;" style="rhombus;whiteSpace=wrap;html=1;fontColor=#ffffff;fillColor=#1ba1e2;strokeColor=#006EAF;" vertex="1" parent="1">
                    <mxGeometry x="440" y="220" width="80" height="80" as="geometry"/>
                </mxCell>
                <mxCell id="13" style="edgeStyle=none;html=1;fontColor=#000000;entryX=0.5;entryY=0;entryDx=0;entryDy=0;" edge="1" parent="1" source="10" target="19">
                    <mxGeometry relative="1" as="geometry">
                        <mxPoint x="320" y="380" as="targetPoint"/>
                        <Array as="points">
                            <mxPoint x="510" y="340"/>
                        </Array>
                    </mxGeometry>
                </mxCell>
                <mxCell id="14" style="edgeStyle=none;html=1;fontColor=#000000;entryX=0.5;entryY=0;entryDx=0;entryDy=0;" edge="1" parent="1" source="10" target="20">
                    <mxGeometry relative="1" as="geometry">
                        <mxPoint x="580" y="380" as="targetPoint"/>
                        <Array as="points">
                            <mxPoint x="780" y="340"/>
                        </Array>
                    </mxGeometry>
                </mxCell>
                <mxCell id="53" style="edgeStyle=none;html=1;fontColor=#FF0000;" edge="1" parent="1">
                    <mxGeometry relative="1" as="geometry">
                        <mxPoint x="490" y="780" as="targetPoint"/>
                        <mxPoint x="650" y="510" as="sourcePoint"/>
                        <Array as="points">
                            <mxPoint x="650" y="780"/>
                        </Array>
                    </mxGeometry>
                </mxCell>
                <mxCell id="10" value="&lt;font color=&quot;#000000&quot;&gt;Y==0&lt;/font&gt;" style="rhombus;whiteSpace=wrap;html=1;fontColor=#ffffff;fillColor=#1ba1e2;strokeColor=#006EAF;" vertex="1" parent="1">
                    <mxGeometry x="610" y="300" width="80" height="80" as="geometry"/>
                </mxCell>
                <mxCell id="15" value="&lt;font color=&quot;#66cc00&quot;&gt;TRUE&lt;/font&gt;" style="text;html=1;align=center;verticalAlign=middle;resizable=0;points=[];autosize=1;strokeColor=none;fillColor=none;fontColor=#000000;" vertex="1" parent="1">
                    <mxGeometry x="680" y="315" width="60" height="30" as="geometry"/>
                </mxCell>
                <mxCell id="16" value="&lt;font color=&quot;#ff0000&quot;&gt;FALSE&lt;/font&gt;" style="text;html=1;align=center;verticalAlign=middle;resizable=0;points=[];autosize=1;strokeColor=none;fillColor=none;fontColor=#66CC00;" vertex="1" parent="1">
                    <mxGeometry x="530" y="315" width="60" height="30" as="geometry"/>
                </mxCell>
                <mxCell id="17" value="&lt;font color=&quot;#336600&quot;&gt;TRUE&lt;/font&gt;" style="text;html=1;align=center;verticalAlign=middle;resizable=0;points=[];autosize=1;strokeColor=none;fillColor=none;fontColor=#FF0000;" vertex="1" parent="1">
                    <mxGeometry x="520" y="235" width="60" height="30" as="geometry"/>
                </mxCell>
                <mxCell id="52" style="edgeStyle=none;html=1;fontColor=#FF0000;" edge="1" parent="1" source="19">
                    <mxGeometry relative="1" as="geometry">
                        <mxPoint x="650" y="510" as="targetPoint"/>
                        <Array as="points">
                            <mxPoint x="515" y="510"/>
                        </Array>
                    </mxGeometry>
                </mxCell>
                <mxCell id="19" value="&lt;font color=&quot;#000000&quot;&gt;Eje Y&lt;/font&gt;" style="shape=document;whiteSpace=wrap;html=1;boundedLbl=1;fontColor=#000000;fillColor=#fa6800;strokeColor=#C73500;" vertex="1" parent="1">
                    <mxGeometry x="470" y="380" width="90" height="60" as="geometry"/>
                </mxCell>
                <mxCell id="51" style="edgeStyle=none;html=1;fontColor=#FF0000;" edge="1" parent="1" source="20">
                    <mxGeometry relative="1" as="geometry">
                        <mxPoint x="650" y="510" as="targetPoint"/>
                        <Array as="points">
                            <mxPoint x="780" y="510"/>
                        </Array>
                    </mxGeometry>
                </mxCell>
                <mxCell id="20" value="&lt;font color=&quot;#000000&quot;&gt;ORIGEN&lt;/font&gt;" style="shape=document;whiteSpace=wrap;html=1;boundedLbl=1;fontColor=#000000;fillColor=#fa6800;strokeColor=#C73500;" vertex="1" parent="1">
                    <mxGeometry x="730" y="380" width="100" height="60" as="geometry"/>
                </mxCell>
                <mxCell id="22" value="" style="edgeStyle=none;html=1;fontColor=#000000;endArrow=none;" edge="1" parent="1" source="6" target="18">
                    <mxGeometry relative="1" as="geometry">
                        <mxPoint x="80" y="300" as="targetPoint"/>
                        <mxPoint x="440" y="260" as="sourcePoint"/>
                        <Array as="points"/>
                    </mxGeometry>
                </mxCell>
                <mxCell id="18" value="&lt;font color=&quot;#ff0000&quot;&gt;FALSE&lt;/font&gt;" style="text;html=1;align=center;verticalAlign=middle;resizable=0;points=[];autosize=1;strokeColor=none;fillColor=none;fontColor=#336600;" vertex="1" parent="1">
                    <mxGeometry x="370" y="235" width="60" height="30" as="geometry"/>
                </mxCell>
                <mxCell id="25" style="edgeStyle=none;html=1;fontColor=#000000;entryX=0.5;entryY=0;entryDx=0;entryDy=0;" edge="1" parent="1" source="24" target="26">
                    <mxGeometry relative="1" as="geometry">
                        <mxPoint x="400" y="410" as="targetPoint"/>
                        <Array as="points">
                            <mxPoint x="420" y="355"/>
                        </Array>
                    </mxGeometry>
                </mxCell>
                <mxCell id="27" style="edgeStyle=none;html=1;fontColor=#000000;entryX=0.5;entryY=0;entryDx=0;entryDy=0;" edge="1" parent="1" source="24" target="28">
                    <mxGeometry relative="1" as="geometry">
                        <mxPoint x="250" y="400" as="targetPoint"/>
                        <Array as="points">
                            <mxPoint x="250" y="355"/>
                        </Array>
                    </mxGeometry>
                </mxCell>
                <mxCell id="24" value="&lt;font color=&quot;#000000&quot;&gt;Y==0&lt;/font&gt;" style="rhombus;whiteSpace=wrap;html=1;fontColor=#ffffff;fillColor=#1ba1e2;strokeColor=#006EAF;" vertex="1" parent="1">
                    <mxGeometry x="300" y="315" width="80" height="80" as="geometry"/>
                </mxCell>
                <mxCell id="59" style="edgeStyle=none;html=1;fontColor=#000000;" edge="1" parent="1" source="26">
                    <mxGeometry relative="1" as="geometry">
                        <mxPoint x="470" y="780" as="targetPoint"/>
                        <Array as="points">
                            <mxPoint x="420" y="500"/>
                            <mxPoint x="470" y="500"/>
                        </Array>
                    </mxGeometry>
                </mxCell>
                <mxCell id="26" value="Eje X" style="shape=document;whiteSpace=wrap;html=1;boundedLbl=1;fontColor=#000000;fillColor=#fa6800;strokeColor=#C73500;" vertex="1" parent="1">
                    <mxGeometry x="380" y="410" width="80" height="60" as="geometry"/>
                </mxCell>
                <mxCell id="29" style="edgeStyle=none;html=1;fontColor=#000000;entryX=0.5;entryY=0;entryDx=0;entryDy=0;" edge="1" parent="1" source="28" target="30">
                    <mxGeometry relative="1" as="geometry">
                        <mxPoint x="320" y="510" as="targetPoint"/>
                        <Array as="points">
                            <mxPoint x="350" y="450"/>
                        </Array>
                    </mxGeometry>
                </mxCell>
                <mxCell id="31" style="edgeStyle=none;html=1;fontColor=#000000;startArrow=none;exitX=0;exitY=0.5;exitDx=0;exitDy=0;" edge="1" parent="1" source="28">
                    <mxGeometry relative="1" as="geometry">
                        <mxPoint x="150" y="500" as="targetPoint"/>
                        <mxPoint x="160" y="447.5" as="sourcePoint"/>
                        <Array as="points">
                            <mxPoint x="150" y="450"/>
                        </Array>
                    </mxGeometry>
                </mxCell>
                <mxCell id="28" value="&lt;font color=&quot;#000000&quot;&gt;X&amp;gt;0&lt;/font&gt;" style="rhombus;whiteSpace=wrap;html=1;fontColor=#ffffff;fillColor=#1ba1e2;strokeColor=#006EAF;" vertex="1" parent="1">
                    <mxGeometry x="210" y="410" width="80" height="80" as="geometry"/>
                </mxCell>
                <mxCell id="57" style="edgeStyle=none;html=1;fontColor=#000000;" edge="1" parent="1" source="30">
                    <mxGeometry relative="1" as="geometry">
                        <mxPoint x="280" y="650" as="targetPoint"/>
                        <Array as="points">
                            <mxPoint x="280" y="550"/>
                        </Array>
                    </mxGeometry>
                </mxCell>
                <mxCell id="58" style="edgeStyle=none;html=1;fontColor=#000000;" edge="1" parent="1" source="30">
                    <mxGeometry relative="1" as="geometry">
                        <mxPoint x="410" y="650" as="targetPoint"/>
                        <Array as="points">
                            <mxPoint x="410" y="550"/>
                        </Array>
                    </mxGeometry>
                </mxCell>
                <mxCell id="30" value="&lt;font color=&quot;#000000&quot;&gt;Y&amp;gt;0&lt;/font&gt;" style="rhombus;whiteSpace=wrap;html=1;fontColor=#ffffff;fillColor=#1ba1e2;strokeColor=#006EAF;" vertex="1" parent="1">
                    <mxGeometry x="310" y="510" width="80" height="80" as="geometry"/>
                </mxCell>
                <mxCell id="33" style="edgeStyle=none;html=1;fontColor=#000000;" edge="1" parent="1" source="32">
                    <mxGeometry relative="1" as="geometry">
                        <mxPoint x="50" y="590" as="targetPoint"/>
                        <Array as="points">
                            <mxPoint x="50" y="540"/>
                        </Array>
                    </mxGeometry>
                </mxCell>
                <mxCell id="35" style="edgeStyle=none;html=1;fontColor=#000000;" edge="1" parent="1" source="32">
                    <mxGeometry relative="1" as="geometry">
                        <mxPoint x="230" y="590" as="targetPoint"/>
                        <Array as="points">
                            <mxPoint x="230" y="540"/>
                        </Array>
                    </mxGeometry>
                </mxCell>
                <mxCell id="32" value="&lt;font color=&quot;#000000&quot;&gt;Y&amp;lt;0&lt;/font&gt;" style="rhombus;whiteSpace=wrap;html=1;fontColor=#ffffff;fillColor=#1ba1e2;strokeColor=#006EAF;" vertex="1" parent="1">
                    <mxGeometry x="110" y="500" width="80" height="80" as="geometry"/>
                </mxCell>
                <mxCell id="45" style="edgeStyle=none;html=1;fontColor=#FF0000;" edge="1" parent="1" source="34">
                    <mxGeometry relative="1" as="geometry">
                        <mxPoint x="140" y="700" as="targetPoint"/>
                        <Array as="points">
                            <mxPoint x="55" y="700"/>
                        </Array>
                    </mxGeometry>
                </mxCell>
                <mxCell id="34" value="CUADRANTE 2" style="shape=document;whiteSpace=wrap;html=1;boundedLbl=1;fontColor=#000000;fillColor=#fa6800;strokeColor=#C73500;" vertex="1" parent="1">
                    <mxGeometry x="10" y="590" width="90" height="50" as="geometry"/>
                </mxCell>
                <mxCell id="46" style="edgeStyle=none;html=1;fontColor=#FF0000;" edge="1" parent="1" source="36">
                    <mxGeometry relative="1" as="geometry">
                        <mxPoint x="140" y="700" as="targetPoint"/>
                        <Array as="points">
                            <mxPoint x="220" y="700"/>
                        </Array>
                    </mxGeometry>
                </mxCell>
                <mxCell id="36" value="CUADRANTE 3" style="shape=document;whiteSpace=wrap;html=1;boundedLbl=1;fontColor=#000000;fillColor=#fa6800;strokeColor=#C73500;" vertex="1" parent="1">
                    <mxGeometry x="170" y="590" width="100" height="50" as="geometry"/>
                </mxCell>
                <mxCell id="37" value="&lt;font color=&quot;#66cc00&quot;&gt;TRUE&lt;/font&gt;" style="text;html=1;align=center;verticalAlign=middle;resizable=0;points=[];autosize=1;strokeColor=none;fillColor=none;fontColor=#000000;" vertex="1" parent="1">
                    <mxGeometry x="180" y="515" width="60" height="30" as="geometry"/>
                </mxCell>
                <mxCell id="38" value="&lt;font color=&quot;#ff0000&quot;&gt;FALSE&lt;/font&gt;" style="text;html=1;align=center;verticalAlign=middle;resizable=0;points=[];autosize=1;strokeColor=none;fillColor=none;fontColor=#66CC00;" vertex="1" parent="1">
                    <mxGeometry x="60" y="515" width="60" height="30" as="geometry"/>
                </mxCell>
                <mxCell id="39" value="&lt;font color=&quot;#66cc00&quot;&gt;TRUE&lt;/font&gt;" style="text;html=1;align=center;verticalAlign=middle;resizable=0;points=[];autosize=1;strokeColor=none;fillColor=none;fontColor=#FF0000;" vertex="1" parent="1">
                    <mxGeometry x="270" y="425" width="60" height="30" as="geometry"/>
                </mxCell>
                <mxCell id="42" value="FALSE" style="text;html=1;align=center;verticalAlign=middle;resizable=0;points=[];autosize=1;strokeColor=none;fillColor=none;fontColor=#FF0000;" vertex="1" parent="1">
                    <mxGeometry x="160" y="425" width="60" height="30" as="geometry"/>
                </mxCell>
                <mxCell id="43" value="&lt;font color=&quot;#66cc00&quot;&gt;TRUE&lt;/font&gt;" style="text;html=1;align=center;verticalAlign=middle;resizable=0;points=[];autosize=1;strokeColor=none;fillColor=none;fontColor=#FF0000;" vertex="1" parent="1">
                    <mxGeometry x="370" y="325" width="60" height="30" as="geometry"/>
                </mxCell>
                <mxCell id="44" value="&lt;font color=&quot;#ff0000&quot;&gt;FALSE&lt;/font&gt;" style="text;html=1;align=center;verticalAlign=middle;resizable=0;points=[];autosize=1;strokeColor=none;fillColor=none;fontColor=#66CC00;" vertex="1" parent="1">
                    <mxGeometry x="250" y="325" width="60" height="30" as="geometry"/>
                </mxCell>
                <mxCell id="49" value="" style="endArrow=classic;startArrow=classic;html=1;fontColor=#FF0000;" edge="1" parent="1">
                    <mxGeometry width="50" height="50" relative="1" as="geometry">
                        <mxPoint x="490" y="780" as="sourcePoint"/>
                        <mxPoint x="140" y="700" as="targetPoint"/>
                        <Array as="points">
                            <mxPoint x="140" y="780"/>
                        </Array>
                    </mxGeometry>
                </mxCell>
                <mxCell id="54" value="" style="endArrow=classic;startArrow=classic;html=1;fontColor=#FF0000;" edge="1" parent="1">
                    <mxGeometry width="50" height="50" relative="1" as="geometry">
                        <mxPoint x="490" y="860" as="sourcePoint"/>
                        <mxPoint x="490" y="780" as="targetPoint"/>
                    </mxGeometry>
                </mxCell>
                <mxCell id="55" value="&lt;font color=&quot;#000000&quot;&gt;FIN&lt;/font&gt;" style="ellipse;whiteSpace=wrap;html=1;fontColor=#000000;fillColor=#e3c800;strokeColor=#B09500;" vertex="1" parent="1">
                    <mxGeometry x="445" y="860" width="95" height="60" as="geometry"/>
                </mxCell>
                <mxCell id="62" style="edgeStyle=none;html=1;fontColor=#000000;" edge="1" parent="1" source="60">
                    <mxGeometry relative="1" as="geometry">
                        <mxPoint x="340" y="740" as="targetPoint"/>
                        <Array as="points">
                            <mxPoint x="280" y="740"/>
                        </Array>
                    </mxGeometry>
                </mxCell>
                <mxCell id="60" value="CUADRANTE 4" style="shape=document;whiteSpace=wrap;html=1;boundedLbl=1;fontColor=#000000;fillColor=#fa6800;strokeColor=#C73500;" vertex="1" parent="1">
                    <mxGeometry x="235" y="650" width="90" height="50" as="geometry"/>
                </mxCell>
                <mxCell id="63" style="edgeStyle=none;html=1;fontColor=#000000;" edge="1" parent="1" source="61">
                    <mxGeometry relative="1" as="geometry">
                        <mxPoint x="340" y="740" as="targetPoint"/>
                        <Array as="points">
                            <mxPoint x="405" y="740"/>
                        </Array>
                    </mxGeometry>
                </mxCell>
                <mxCell id="61" value="CUADRANTE 1" style="shape=document;whiteSpace=wrap;html=1;boundedLbl=1;fontColor=#000000;fillColor=#fa6800;strokeColor=#C73500;" vertex="1" parent="1">
                    <mxGeometry x="360" y="650" width="90" height="50" as="geometry"/>
                </mxCell>
                <mxCell id="64" value="" style="endArrow=classic;startArrow=classic;html=1;fontColor=#000000;" edge="1" parent="1">
                    <mxGeometry width="50" height="50" relative="1" as="geometry">
                        <mxPoint x="340" y="780" as="sourcePoint"/>
                        <mxPoint x="340" y="740" as="targetPoint"/>
                    </mxGeometry>
                </mxCell>
            </root>
        </mxGraphModel>
    </diagram>
</mxfile>